STARTFONT 2.1
FONT dejavu-18
SIZE 18 75 75
FONTBOUNDINGBOX 20 22 0 -5
STARTPROPERTIES 2
FONT_ASCENT 17
FONT_DESCENT 5
ENDPROPERTIES
CHARS 103
STARTCHAR U+0020
ENCODING 32
SWIDTH 333 0
DWIDTH 6 0
BBX 1 1 0 0
BITMAP
00
ENDCHAR
STARTCHAR U+0021
ENCODING 33
SWIDTH 444 0
DWIDTH 8 0
BBX 8 13 0 0
BITMAP
1C
1C
1C
1C
1C
1C
1C
1C
1C
00
1C
1C
1C
ENDCHAR
STARTCHAR U+0022
ENCODING 34
SWIDTH 500 0
DWIDTH 9 0
BBX 9 13 0 0
BITMAP
3300
3300
3300
3300
3300
0000
0000
0000
0000
0000
0000
0000
0000
ENDCHAR
STARTCHAR U+0023
ENCODING 35
SWIDTH 833 0
DWIDTH 15 0
BBX 15 13 0 0
BITMAP
0330
0330
0630
0630
3FFC
3FFC
0C60
0C60
7FF8
7FF8
18C0
1980
1980
ENDCHAR
STARTCHAR U+0024
ENCODING 36
SWIDTH 722 0
DWIDTH 13 0
BBX 13 17 0 -3
BITMAP
0400
0400
1F80
3FC0
7440
7400
7C00
7F80
1FC0
07E0
04E0
44E0
7FC0
3F80
0400
0400
0400
ENDCHAR
STARTCHAR U+0025
ENCODING 37
SWIDTH 1000 0
DWIDTH 18 0
BBX 18 13 0 0
BITMAP
3E0E00
630C00
631800
633800
633000
636000
3EEF80
00D8C0
0198C0
0398C0
0318C0
060880
0E0F00
ENDCHAR
STARTCHAR U+0026
ENCODING 38
SWIDTH 888 0
DWIDTH 16 0
BBX 16 13 0 0
BITMAP
07C0
1FE0
1C20
1C00
0E00
1F1C
3F9C
73D8
71F8
70F0
7870
3FF8
0FBC
ENDCHAR
STARTCHAR U+0027
ENCODING 39
SWIDTH 333 0
DWIDTH 6 0
BBX 6 13 0 0
BITMAP
30
30
30
30
30
00
00
00
00
00
00
00
00
ENDCHAR
STARTCHAR U+0028
ENCODING 40
SWIDTH 444 0
DWIDTH 8 0
BBX 8 16 0 -2
BITMAP
0E
0C
1C
1C
18
38
38
38
38
38
38
18
1C
1C
0C
0E
ENDCHAR
STARTCHAR U+0029
ENCODING 41
SWIDTH 444 0
DWIDTH 8 0
BBX 8 16 0 -2
BITMAP
38
18
1C
1C
0C
0E
0E
0E
0E
0E
0E
0C
1C
1C
18
38
ENDCHAR
STARTCHAR U+002A
ENCODING 42
SWIDTH 500 0
DWIDTH 9 0
BBX 10 13 0 0
BITMAP
0C00
CCC0
FFC0
3F00
3F00
FFC0
CCC0
0C00
0000
0000
0000
0000
0000
ENDCHAR
STARTCHAR U+002B
ENCODING 43
SWIDTH 833 0
DWIDTH 15 0
BBX 15 12 0 0
BITMAP
0180
0180
0180
0180
0180
3FFC
3FFC
0180
0180
0180
0180
0180
ENDCHAR
STARTCHAR U+002C
ENCODING 44
SWIDTH 388 0
DWIDTH 7 0
BBX 7 6 0 -3
BITMAP
38
38
38
38
70
60
ENDCHAR
STARTCHAR U+002D
ENCODING 45
SWIDTH 388 0
DWIDTH 7 0
BBX 7 7 0 0
BITMAP
7E
7E
7E
00
00
00
00
ENDCHAR
STARTCHAR U+002E
ENCODING 46
SWIDTH 388 0
DWIDTH 7 0
BBX 7 3 0 0
BITMAP
38
38
38
ENDCHAR
STARTCHAR U+002F
ENCODING 47
SWIDTH 388 0
DWIDTH 7 0
BBX 7 15 0 -2
BITMAP
06
0E
0C
0C
1C
18
18
38
30
30
70
60
60
E0
C0
ENDCHAR
STARTCHAR U+0030
ENCODING 48
SWIDTH 722 0
DWIDTH 13 0
BBX 13 13 0 0
BITMAP
0F80
1FC0
38E0
7070
7070
7070
7070
7070
7070
7070
38E0
1FC0
0F80
ENDCHAR
STARTCHAR U+0031
ENCODING 49
SWIDTH 722 0
DWIDTH 13 0
BBX 13 13 0 0
BITMAP
1F00
3F00
3700
0700
0700
0700
0700
0700
0700
0700
0700
3FE0
3FE0
ENDCHAR
STARTCHAR U+0032
ENCODING 50
SWIDTH 722 0
DWIDTH 13 0
BBX 13 13 0 0
BITMAP
3F80
7FC0
61E0
40E0
00E0
00E0
01E0
03C0
0F80
1F00
3E00
7FE0
7FE0
ENDCHAR
STARTCHAR U+0033
ENCODING 51
SWIDTH 722 0
DWIDTH 13 0
BBX 13 13 0 0
BITMAP
3F80
7FC0
41E0
00E0
01E0
1F80
1FC0
01E0
00E0
00E0
41E0
7FC0
3F00
ENDCHAR
STARTCHAR U+0034
ENCODING 52
SWIDTH 722 0
DWIDTH 13 0
BBX 13 13 0 0
BITMAP
03C0
07C0
0FC0
0DC0
19C0
39C0
31C0
61C0
7FF0
7FF0
01C0
01C0
01C0
ENDCHAR
STARTCHAR U+0035
ENCODING 53
SWIDTH 722 0
DWIDTH 13 0
BBX 13 13 0 0
BITMAP
3FC0
3FC0
3800
3800
3F80
3FC0
21E0
00E0
00E0
00E0
41E0
7FC0
3F00
ENDCHAR
STARTCHAR U+0036
ENCODING 54
SWIDTH 722 0
DWIDTH 13 0
BBX 13 13 0 0
BITMAP
0F80
1FC0
3840
3000
7F80
7FC0
79E0
70E0
70E0
70E0
39E0
3FC0
0F80
ENDCHAR
STARTCHAR U+0037
ENCODING 55
SWIDTH 722 0
DWIDTH 13 0
BBX 13 13 0 0
BITMAP
7FE0
7FE0
01E0
01C0
03C0
0380
0380
0700
0700
0E00
0E00
1E00
1C00
ENDCHAR
STARTCHAR U+0038
ENCODING 56
SWIDTH 722 0
DWIDTH 13 0
BBX 13 13 0 0
BITMAP
1F80
3FC0
70E0
70E0
70E0
3FC0
3FC0
79E0
70E0
70E0
79E0
3FC0
1F80
ENDCHAR
STARTCHAR U+0039
ENCODING 57
SWIDTH 722 0
DWIDTH 13 0
BBX 13 13 0 0
BITMAP
1F00
3FC0
79C0
70E0
70E0
70E0
79E0
3FE0
1FE0
00C0
21C0
3F80
1F00
ENDCHAR
STARTCHAR U+003A
ENCODING 58
SWIDTH 388 0
DWIDTH 7 0
BBX 7 10 0 0
BITMAP
38
38
38
00
00
00
00
38
38
38
ENDCHAR
STARTCHAR U+003B
ENCODING 59
SWIDTH 388 0
DWIDTH 7 0
BBX 7 13 0 -3
BITMAP
38
38
38
00
00
00
00
38
38
38
38
70
60
ENDCHAR
STARTCHAR U+003C
ENCODING 60
SWIDTH 833 0
DWIDTH 15 0
BBX 15 11 0 0
BITMAP
0008
0078
03F0
1F80
3C00
3C00
1F80
03F0
0078
0008
0000
ENDCHAR
STARTCHAR U+003D
ENCODING 61
SWIDTH 833 0
DWIDTH 15 0
BBX 15 9 0 0
BITMAP
3FF8
3FF8
0000
0000
3FF8
3FF8
0000
0000
0000
ENDCHAR
STARTCHAR U+003E
ENCODING 62
SWIDTH 833 0
DWIDTH 15 0
BBX 15 11 0 0
BITMAP
2000
3C00
1F80
03F0
0078
0078
03F0
1F80
3C00
2000
0000
ENDCHAR
STARTCHAR U+003F
ENCODING 63
SWIDTH 555 0
DWIDTH 10 0
BBX 10 13 0 0
BITMAP
3E00
7F00
4380
0380
0380
0700
0E00
1C00
1C00
0000
1C00
1C00
1C00
ENDCHAR
STARTCHAR U+0040
ENCODING 64
SWIDTH 1000 0
DWIDTH 18 0
BBX 18 16 0 -3
BITMAP
03F000
0FFC00
1E0E00
380700
31DB80
73F980
673980
661980
661980
673B00
73FF00
31DC00
380400
1E1C00
0FF800
03E000
ENDCHAR
STARTCHAR U+0041
ENCODING 65
SWIDTH 777 0
DWIDTH 14 0
BBX 14 13 0 0
BITMAP
0780
0780
0FC0
0CC0
1CE0
1CE0
1860
3870
3FF0
7FF8
7038
7038
E01C
ENDCHAR
STARTCHAR U+0042
ENCODING 66
SWIDTH 777 0
DWIDTH 14 0
BBX 14 13 0 0
BITMAP
3FC0
3FF0
3870
3870
3870
3FE0
3FF0
3878
3838
3838
3878
3FF0
3FE0
ENDCHAR
STARTCHAR U+0043
ENCODING 67
SWIDTH 722 0
DWIDTH 13 0
BBX 13 13 0 0
BITMAP
07E0
1FF0
3C10
3800
7000
7000
7000
7000
7000
3800
3C10
1FF0
07E0
ENDCHAR
STARTCHAR U+0044
ENCODING 68
SWIDTH 833 0
DWIDTH 15 0
BBX 15 13 0 0
BITMAP
3FC0
3FF0
3878
3838
381C
381C
381C
381C
381C
3838
3878
3FF0
3FC0
ENDCHAR
STARTCHAR U+0045
ENCODING 69
SWIDTH 666 0
DWIDTH 12 0
BBX 12 13 0 0
BITMAP
3FE0
3FE0
3800
3800
3800
3FC0
3FC0
3800
3800
3800
3800
3FE0
3FE0
ENDCHAR
STARTCHAR U+0046
ENCODING 70
SWIDTH 666 0
DWIDTH 12 0
BBX 12 13 0 0
BITMAP
3FE0
3FE0
3800
3800
3800
3FE0
3FE0
3800
3800
3800
3800
3800
3800
ENDCHAR
STARTCHAR U+0047
ENCODING 71
SWIDTH 833 0
DWIDTH 15 0
BBX 15 13 0 0
BITMAP
07F0
1FF8
3C08
3800
7000
7000
707C
707C
701C
381C
3C1C
1FFC
07F0
ENDCHAR
STARTCHAR U+0048
ENCODING 72
SWIDTH 833 0
DWIDTH 15 0
BBX 15 13 0 0
BITMAP
381C
381C
381C
381C
381C
3FFC
3FFC
381C
381C
381C
381C
381C
381C
ENDCHAR
STARTCHAR U+0049
ENCODING 73
SWIDTH 388 0
DWIDTH 7 0
BBX 7 13 0 0
BITMAP
38
38
38
38
38
38
38
38
38
38
38
38
38
ENDCHAR
STARTCHAR U+004A
ENCODING 74
SWIDTH 388 0
DWIDTH 7 0
BBX 9 17 -2 -4
BITMAP
0E00
0E00
0E00
0E00
0E00
0E00
0E00
0E00
0E00
0E00
0E00
0E00
0E00
0E00
1E00
7C00
7800
ENDCHAR
STARTCHAR U+004B
ENCODING 75
SWIDTH 777 0
DWIDTH 14 0
BBX 15 13 0 0
BITMAP
3878
38F0
39E0
3BC0
3F80
3F00
3F00
3F80
3BC0
39E0
38F0
3878
383C
ENDCHAR
STARTCHAR U+004C
ENCODING 76
SWIDTH 611 0
DWIDTH 11 0
BBX 11 13 0 0
BITMAP
3800
3800
3800
3800
3800
3800
3800
3800
3800
3800
3800
3FE0
3FE0
ENDCHAR
STARTCHAR U+004D
ENCODING 77
SWIDTH 1000 0
DWIDTH 18 0
BBX 18 13 0 0
BITMAP
3C0780
3C0780
3E0F80
3E0F80
3B1B80
3B1B80
3BBB80
39B380
39F380
38E380
38E380
380380
380380
ENDCHAR
STARTCHAR U+004E
ENCODING 78
SWIDTH 833 0
DWIDTH 15 0
BBX 15 13 0 0
BITMAP
3C1C
3C1C
3E1C
3E1C
3B1C
3B9C
399C
39DC
38DC
38FC
387C
383C
383C
ENDCHAR
STARTCHAR U+004F
ENCODING 79
SWIDTH 833 0
DWIDTH 15 0
BBX 15 13 0 0
BITMAP
07C0
1FF0
3C78
3838
701C
701C
701C
701C
701C
3838
3C78
1FF0
07C0
ENDCHAR
STARTCHAR U+0050
ENCODING 80
SWIDTH 722 0
DWIDTH 13 0
BBX 13 13 0 0
BITMAP
3FE0
3FF0
3878
3838
3838
3838
3878
3FF0
3FE0
3800
3800
3800
3800
ENDCHAR
STARTCHAR U+0051
ENCODING 81
SWIDTH 833 0
DWIDTH 15 0
BBX 15 16 0 -3
BITMAP
07C0
1FF0
3C78
3838
701C
701C
701C
701C
701C
383C
3C78
1FF0
07E0
00E0
0070
0038
ENDCHAR
STARTCHAR U+0052
ENCODING 82
SWIDTH 777 0
DWIDTH 14 0
BBX 14 13 0 0
BITMAP
3FC0
3FE0
3870
3870
3870
38F0
3FE0
3FE0
38E0
3870
3878
3838
383C
ENDCHAR
STARTCHAR U+0053
ENCODING 83
SWIDTH 722 0
DWIDTH 13 0
BBX 13 13 0 0
BITMAP
1FC0
3FC0
7040
7000
7800
7F00
3FC0
07E0
01E0
00E0
40E0
7FC0
3F80
ENDCHAR
STARTCHAR U+0054
ENCODING 84
SWIDTH 666 0
DWIDTH 12 0
BBX 13 13 0 0
BITMAP
FFE0
FFE0
0E00
0E00
0E00
0E00
0E00
0E00
0E00
0E00
0E00
0E00
0E00
ENDCHAR
STARTCHAR U+0055
ENCODING 85
SWIDTH 833 0
DWIDTH 15 0
BBX 15 13 0 0
BITMAP
381C
381C
381C
381C
381C
381C
381C
381C
381C
381C
1C38
1FF8
07E0
ENDCHAR
STARTCHAR U+0056
ENCODING 86
SWIDTH 777 0
DWIDTH 14 0
BBX 14 13 0 0
BITMAP
E01C
7038
7038
7878
3870
3870
3CF0
1CE0
1CE0
0FC0
0FC0
0FC0
0780
ENDCHAR
STARTCHAR U+0057
ENCODING 87
SWIDTH 1111 0
DWIDTH 20 0
BBX 20 13 0 0
BITMAP
707070
70F870
38D8E0
38D8E0
38D8E0
38D8E0
1D8DC0
1D8DC0
1D8DC0
1D8DC0
0F0780
0F0780
0F0780
ENDCHAR
STARTCHAR U+0058
ENCODING 88
SWIDTH 777 0
DWIDTH 14 0
BBX 14 13 0 0
BITMAP
F078
78F0
38E0
3DE0
1FC0
0F80
0F80
0F80
1FC0
3DE0
38E0
78F0
F078
ENDCHAR
STARTCHAR U+0059
ENCODING 89
SWIDTH 722 0
DWIDTH 13 0
BBX 15 13 -1 0
BITMAP
783C
3C78
1C70
1EF0
0FE0
07C0
07C0
0380
0380
0380
0380
0380
0380
ENDCHAR
STARTCHAR U+005A
ENCODING 90
SWIDTH 722 0
DWIDTH 13 0
BBX 13 13 0 0
BITMAP
7FF0
7FF0
00F0
01E0
03C0
0780
0700
0F00
1E00
3C00
7800
7FF0
7FF0
ENDCHAR
STARTCHAR U+005B
ENCODING 91
SWIDTH 444 0
DWIDTH 8 0
BBX 8 16 0 -2
BITMAP
3E
3E
38
38
38
38
38
38
38
38
38
38
38
38
3E
3E
ENDCHAR
STARTCHAR U+005C
ENCODING 92
SWIDTH 388 0
DWIDTH 7 0
BBX 7 15 0 -2
BITMAP
C0
E0
60
60
70
30
30
38
18
18
1C
0C
0C
0E
06
ENDCHAR
STARTCHAR U+005D
ENCODING 93
SWIDTH 444 0
DWIDTH 8 0
BBX 8 16 0 -2
BITMAP
3E
3E
0E
0E
0E
0E
0E
0E
0E
0E
0E
0E
0E
0E
3E
3E
ENDCHAR
STARTCHAR U+005E
ENCODING 94
SWIDTH 833 0
DWIDTH 15 0
BBX 15 13 0 0
BITMAP
0380
07C0
0EE0
1C70
3838
0000
0000
0000
0000
0000
0000
0000
0000
ENDCHAR
STARTCHAR U+005F
ENCODING 95
SWIDTH 500 0
DWIDTH 9 0
BBX 9 4 0 -4
BITMAP
0000
0000
FF80
FF80
ENDCHAR
STARTCHAR U+0060
ENCODING 96
SWIDTH 500 0
DWIDTH 9 0
BBX 9 14 0 0
BITMAP
3000
1800
0C00
0000
0000
0000
0000
0000
0000
0000
0000
0000
0000
0000
ENDCHAR
STARTCHAR U+0061
ENCODING 97
SWIDTH 666 0
DWIDTH 12 0
BBX 12 10 0 0
BITMAP
1F80
3FC0
20E0
00E0
1FE0
7FE0
70E0
71E0
7FE0
3EE0
ENDCHAR
STARTCHAR U+0062
ENCODING 98
SWIDTH 722 0
DWIDTH 13 0
BBX 13 14 0 0
BITMAP
3800
3800
3800
3800
39E0
3FF0
3C70
3838
3838
3838
3838
3C70
3FF0
39E0
ENDCHAR
STARTCHAR U+0063
ENCODING 99
SWIDTH 611 0
DWIDTH 11 0
BBX 11 10 0 0
BITMAP
0F80
3FC0
3840
7000
7000
7000
7000
3840
3FC0
0F80
ENDCHAR
STARTCHAR U+0064
ENCODING 100
SWIDTH 722 0
DWIDTH 13 0
BBX 13 14 0 0
BITMAP
0070
0070
0070
0070
1E70
3FF0
38F0
7070
7070
7070
7070
38F0
3FF0
1E70
ENDCHAR
STARTCHAR U+0065
ENCODING 101
SWIDTH 666 0
DWIDTH 12 0
BBX 12 10 0 0
BITMAP
0F80
3FE0
38E0
7070
7FF0
7FF0
7000
3810
3FF0
0FE0
ENDCHAR
STARTCHAR U+0066
ENCODING 102
SWIDTH 444 0
DWIDTH 8 0
BBX 8 14 0 0
BITMAP
1F
3F
38
38
FF
FF
38
38
38
38
38
38
38
38
ENDCHAR
STARTCHAR U+0067
ENCODING 103
SWIDTH 722 0
DWIDTH 13 0
BBX 13 14 0 -4
BITMAP
1E70
3FF0
38F0
7070
7070
7070
7070
38F0
3FF0
1E70
0070
20E0
3FE0
1F80
ENDCHAR
STARTCHAR U+0068
ENCODING 104
SWIDTH 722 0
DWIDTH 13 0
BBX 13 14 0 0
BITMAP
3800
3800
3800
3800
39E0
3FE0
3C70
3870
3870
3870
3870
3870
3870
3870
ENDCHAR
STARTCHAR U+0069
ENCODING 105
SWIDTH 333 0
DWIDTH 6 0
BBX 6 14 0 0
BITMAP
38
38
38
00
38
38
38
38
38
38
38
38
38
38
ENDCHAR
STARTCHAR U+006A
ENCODING 106
SWIDTH 333 0
DWIDTH 6 0
BBX 7 18 -1 -4
BITMAP
1C
1C
1C
00
1C
1C
1C
1C
1C
1C
1C
1C
1C
1C
1C
1C
78
70
ENDCHAR
STARTCHAR U+006B
ENCODING 107
SWIDTH 666 0
DWIDTH 12 0
BBX 13 14 0 0
BITMAP
3800
3800
3800
3800
3870
38E0
39C0
3B80
3F00
3F00
3B80
39C0
38E0
3870
ENDCHAR
STARTCHAR U+006C
ENCODING 108
SWIDTH 333 0
DWIDTH 6 0
BBX 6 14 0 0
BITMAP
38
38
38
38
38
38
38
38
38
38
38
38
38
38
ENDCHAR
STARTCHAR U+006D
ENCODING 109
SWIDTH 1055 0
DWIDTH 19 0
BBX 19 10 0 0
BITMAP
3BCF00
3FDF80
3CF380
38E380
38E380
38E380
38E380
38E380
38E380
38E380
ENDCHAR
STARTCHAR U+006E
ENCODING 110
SWIDTH 722 0
DWIDTH 13 0
BBX 13 10 0 0
BITMAP
39E0
3FE0
3C70
3870
3870
3870
3870
3870
3870
3870
ENDCHAR
STARTCHAR U+006F
ENCODING 111
SWIDTH 666 0
DWIDTH 12 0
BBX 12 10 0 0
BITMAP
0F80
3FE0
38E0
7070
7070
7070
7070
38E0
3FE0
0F80
ENDCHAR
STARTCHAR U+0070
ENCODING 112
SWIDTH 722 0
DWIDTH 13 0
BBX 13 14 0 -4
BITMAP
39E0
3FF0
3C70
3838
3838
3838
3838
3C70
3FF0
39E0
3800
3800
3800
3800
ENDCHAR
STARTCHAR U+0071
ENCODING 113
SWIDTH 722 0
DWIDTH 13 0
BBX 13 14 0 -4
BITMAP
1E70
3FF0
38F0
7070
7070
7070
7070
38F0
3FF0
1E70
0070
0070
0070
0070
ENDCHAR
STARTCHAR U+0072
ENCODING 114
SWIDTH 500 0
DWIDTH 9 0
BBX 9 10 0 0
BITMAP
3B80
3F80
3C00
3800
3800
3800
3800
3800
3800
3800
ENDCHAR
STARTCHAR U+0073
ENCODING 115
SWIDTH 611 0
DWIDTH 11 0
BBX 11 10 0 0
BITMAP
1F80
7FC0
7040
7000
7F00
1FC0
01C0
41C0
7FC0
3F00
ENDCHAR
STARTCHAR U+0074
ENCODING 116
SWIDTH 500 0
DWIDTH 9 0
BBX 9 13 0 0
BITMAP
1C00
1C00
1C00
7F80
7F80
1C00
1C00
1C00
1C00
1C00
1C00
1F80
0F80
ENDCHAR
STARTCHAR U+0075
ENCODING 117
SWIDTH 722 0
DWIDTH 13 0
BBX 13 10 0 0
BITMAP
3870
3870
3870
3870
3870
3870
3870
38F0
1FF0
0E70
ENDCHAR
STARTCHAR U+0076
ENCODING 118
SWIDTH 666 0
DWIDTH 12 0
BBX 12 10 0 0
BITMAP
7070
70F0
38E0
38E0
1DC0
1DC0
0D80
0F80
0700
0700
ENDCHAR
STARTCHAR U+0077
ENCODING 119
SWIDTH 944 0
DWIDTH 17 0
BBX 17 10 0 0
BITMAP
71C700
71C700
39CE00
3B6E00
3B6E00
1B6C00
1F7C00
1E7C00
0E3800
0E3800
ENDCHAR
STARTCHAR U+0078
ENCODING 120
SWIDTH 666 0
DWIDTH 12 0
BBX 12 10 0 0
BITMAP
78F0
38E0
1DC0
1DC0
0F80
0F80
1DC0
1DC0
38E0
78F0
ENDCHAR
STARTCHAR U+0079
ENCODING 121
SWIDTH 666 0
DWIDTH 12 0
BBX 12 14 0 -4
BITMAP
7070
38E0
38E0
38E0
1DC0
1DC0
0D80
0F80
0780
0700
0700
0700
1E00
1C00
ENDCHAR
STARTCHAR U+007A
ENCODING 122
SWIDTH 555 0
DWIDTH 10 0
BBX 10 10 0 0
BITMAP
7FC0
7FC0
01C0
0380
0700
0E00
1C00
3800
7FC0
7FC0
ENDCHAR
STARTCHAR U+007B
ENCODING 123
SWIDTH 722 0
DWIDTH 13 0
BBX 13 17 0 -3
BITMAP
03E0
07E0
0700
0700
0700
0700
0700
0F00
3E00
3E00
0700
0700
0700
0700
0700
07E0
03E0
ENDCHAR
STARTCHAR U+007C
ENCODING 124
SWIDTH 388 0
DWIDTH 7 0
BBX 7 18 0 -4
BITMAP
30
30
30
30
30
30
30
30
30
30
30
30
30
30
30
30
30
30
ENDCHAR
STARTCHAR U+007D
ENCODING 125
SWIDTH 722 0
DWIDTH 13 0
BBX 13 17 0 -3
BITMAP
3E00
3F00
0700
0700
0700
0700
0700
0780
03E0
03E0
0700
0700
0700
0700
0700
3F00
3E00
ENDCHAR
STARTCHAR U+007E
ENCODING 126
SWIDTH 833 0
DWIDTH 15 0
BBX 15 8 0 0
BITMAP
1F08
3FF8
21F0
0000
0000
0000
0000
0000
ENDCHAR
STARTCHAR U+00E4
ENCODING 228
SWIDTH 666 0
DWIDTH 12 0
BBX 12 14 0 0
BITMAP
0D80
0D80
0000
0000
1F80
3FC0
20E0
00E0
1FE0
7FE0
70E0
71E0
7FE0
3EE0
ENDCHAR
STARTCHAR U+00F6
ENCODING 246
SWIDTH 666 0
DWIDTH 12 0
BBX 12 14 0 0
BITMAP
0D80
0D80
0000
0000
0F80
3FE0
38E0
7070
7070
7070
7070
38E0
3FE0
0F80
ENDCHAR
STARTCHAR U+00FC
ENCODING 252
SWIDTH 722 0
DWIDTH 13 0
BBX 13 14 0 0
BITMAP
0CC0
0CC0
0000
0000
3870
3870
3870
3870
3870
3870
3870
38F0
1FF0
0E70
ENDCHAR
STARTCHAR U+00C4
ENCODING 196
SWIDTH 777 0
DWIDTH 14 0
BBX 14 16 0 0
BITMAP
0CC0
0CC0
0000
0780
0780
0FC0
0CC0
1CE0
1CE0
1860
3870
3FF0
7FF8
7038
7038
E01C
ENDCHAR
STARTCHAR U+00D6
ENCODING 214
SWIDTH 833 0
DWIDTH 15 0
BBX 15 16 0 0
BITMAP
06C0
06C0
0000
07C0
1FF0
3C78
3838
701C
701C
701C
701C
701C
3838
3C78
1FF0
07C0
ENDCHAR
STARTCHAR U+00DC
ENCODING 220
SWIDTH 833 0
DWIDTH 15 0
BBX 15 16 0 0
BITMAP
0660
0660
0000
381C
381C
381C
381C
381C
381C
381C
381C
381C
381C
1C38
1FF8
07E0
ENDCHAR
STARTCHAR U+00DF
ENCODING 223
SWIDTH 722 0
DWIDTH 13 0
BBX 13 14 0 0
BITMAP
0FC0
1FE0
3C70
3870
39F0
3B80
3B80
3BC0
39F0
38F8
3838
3838
3BF8
3BE0
ENDCHAR
STARTCHAR U+00B0
ENCODING 176
SWIDTH 500 0
DWIDTH 9 0
BBX 9 13 0 0
BITMAP
1E00
3300
2100
2100
3300
1E00
0000
0000
0000
0000
0000
0000
0000
ENDCHAR
ENDFONT
