STARTFONT 2.1
FONT dejavu-13
SIZE 13 75 75
FONTBOUNDINGBOX 13 17 0 -4
STARTPROPERTIES 2
FONT_ASCENT 13
FONT_DESCENT 4
ENDPROPERTIES
CHARS 103
STARTCHAR U+0020
ENCODING 32
SWIDTH 307 0
DWIDTH 4 0
BBX 1 1 0 0
BITMAP
00
ENDCHAR
STARTCHAR U+0021
ENCODING 33
SWIDTH 384 0
DWIDTH 5 0
BBX 5 9 0 0
BITMAP
20
20
20
20
20
20
00
20
20
ENDCHAR
STARTCHAR U+0022
ENCODING 34
SWIDTH 461 0
DWIDTH 6 0
BBX 6 9 0 0
BITMAP
50
50
50
50
00
00
00
00
00
ENDCHAR
STARTCHAR U+0023
ENCODING 35
SWIDTH 846 0
DWIDTH 11 0
BBX 11 10 0 0
BITMAP
0480
0900
0900
3FC0
0900
1200
7F80
1200
1200
3400
ENDCHAR
STARTCHAR U+0024
ENCODING 36
SWIDTH 615 0
DWIDTH 8 0
BBX 8 11 0 -2
BITMAP
08
3E
49
48
38
0F
09
49
3E
08
08
ENDCHAR
STARTCHAR U+0025
ENCODING 37
SWIDTH 923 0
DWIDTH 12 0
BBX 12 9 0 0
BITMAP
6080
9100
9200
9200
64C0
0920
0920
1120
20C0
ENDCHAR
STARTCHAR U+0026
ENCODING 38
SWIDTH 769 0
DWIDTH 10 0
BBX 10 9 0 0
BITMAP
1C00
2200
2000
1000
2840
4440
4280
6180
3E40
ENDCHAR
STARTCHAR U+0027
ENCODING 39
SWIDTH 307 0
DWIDTH 4 0
BBX 4 9 0 0
BITMAP
40
40
40
40
00
00
00
00
00
ENDCHAR
STARTCHAR U+0028
ENCODING 40
SWIDTH 384 0
DWIDTH 5 0
BBX 5 12 0 -1
BITMAP
30
20
20
40
40
40
40
40
40
20
20
10
ENDCHAR
STARTCHAR U+0029
ENCODING 41
SWIDTH 384 0
DWIDTH 5 0
BBX 5 12 0 -1
BITMAP
40
20
20
10
10
10
10
10
10
20
20
40
ENDCHAR
STARTCHAR U+002A
ENCODING 42
SWIDTH 461 0
DWIDTH 6 0
BBX 7 9 0 0
BITMAP
10
92
7C
38
D6
10
00
00
00
ENDCHAR
STARTCHAR U+002B
ENCODING 43
SWIDTH 846 0
DWIDTH 11 0
BBX 11 9 0 0
BITMAP
0400
0400
0400
0400
7FC0
0400
0400
0400
0400
ENDCHAR
STARTCHAR U+002C
ENCODING 44
SWIDTH 307 0
DWIDTH 4 0
BBX 4 3 0 -1
BITMAP
20
20
40
ENDCHAR
STARTCHAR U+002D
ENCODING 45
SWIDTH 384 0
DWIDTH 5 0
BBX 5 4 0 0
BITMAP
70
00
00
00
ENDCHAR
STARTCHAR U+002E
ENCODING 46
SWIDTH 307 0
DWIDTH 4 0
BBX 4 2 0 0
BITMAP
20
20
ENDCHAR
STARTCHAR U+002F
ENCODING 47
SWIDTH 307 0
DWIDTH 4 0
BBX 5 11 0 -2
BITMAP
10
10
20
20
20
60
40
40
40
80
80
ENDCHAR
STARTCHAR U+0030
ENCODING 48
SWIDTH 615 0
DWIDTH 8 0
BBX 8 9 0 0
BITMAP
3C
24
42
42
42
42
42
24
3C
ENDCHAR
STARTCHAR U+0031
ENCODING 49
SWIDTH 615 0
DWIDTH 8 0
BBX 8 9 0 0
BITMAP
38
08
08
08
08
08
08
08
3E
ENDCHAR
STARTCHAR U+0032
ENCODING 50
SWIDTH 615 0
DWIDTH 8 0
BBX 8 9 0 0
BITMAP
3C
46
02
02
04
08
10
20
7E
ENDCHAR
STARTCHAR U+0033
ENCODING 51
SWIDTH 615 0
DWIDTH 8 0
BBX 8 9 0 0
BITMAP
3C
42
02
02
1C
02
02
42
3C
ENDCHAR
STARTCHAR U+0034
ENCODING 52
SWIDTH 615 0
DWIDTH 8 0
BBX 8 9 0 0
BITMAP
0C
14
14
24
24
44
7E
04
04
ENDCHAR
STARTCHAR U+0035
ENCODING 53
SWIDTH 615 0
DWIDTH 8 0
BBX 8 9 0 0
BITMAP
7C
40
40
7C
06
02
02
46
3C
ENDCHAR
STARTCHAR U+0036
ENCODING 54
SWIDTH 615 0
DWIDTH 8 0
BBX 8 9 0 0
BITMAP
1C
22
40
5C
66
42
42
26
3C
ENDCHAR
STARTCHAR U+0037
ENCODING 55
SWIDTH 615 0
DWIDTH 8 0
BBX 8 9 0 0
BITMAP
7E
02
04
04
08
08
10
10
20
ENDCHAR
STARTCHAR U+0038
ENCODING 56
SWIDTH 615 0
DWIDTH 8 0
BBX 8 9 0 0
BITMAP
3C
42
42
42
3C
42
42
42
3C
ENDCHAR
STARTCHAR U+0039
ENCODING 57
SWIDTH 615 0
DWIDTH 8 0
BBX 8 9 0 0
BITMAP
3C
64
42
42
66
3A
02
44
38
ENDCHAR
STARTCHAR U+003A
ENCODING 58
SWIDTH 307 0
DWIDTH 4 0
BBX 4 7 0 0
BITMAP
20
20
00
00
00
20
20
ENDCHAR
STARTCHAR U+003B
ENCODING 59
SWIDTH 307 0
DWIDTH 4 0
BBX 4 8 0 -1
BITMAP
20
20
00
00
00
20
20
40
ENDCHAR
STARTCHAR U+003C
ENCODING 60
SWIDTH 846 0
DWIDTH 11 0
BBX 11 8 0 0
BITMAP
0080
0700
3800
4000
3800
0700
0080
0000
ENDCHAR
STARTCHAR U+003D
ENCODING 61
SWIDTH 846 0
DWIDTH 11 0
BBX 11 6 0 0
BITMAP
7F80
0000
0000
7F80
0000
0000
ENDCHAR
STARTCHAR U+003E
ENCODING 62
SWIDTH 846 0
DWIDTH 11 0
BBX 11 8 0 0
BITMAP
4000
3800
0700
0080
0700
3800
4000
0000
ENDCHAR
STARTCHAR U+003F
ENCODING 63
SWIDTH 538 0
DWIDTH 7 0
BBX 7 9 0 0
BITMAP
38
44
04
08
10
10
00
10
10
ENDCHAR
STARTCHAR U+0040
ENCODING 64
SWIDTH 1000 0
DWIDTH 13 0
BBX 13 11 0 -2
BITMAP
0F80
1060
2020
4790
4890
4890
48A0
47C0
2000
1040
0F80
ENDCHAR
STARTCHAR U+0041
ENCODING 65
SWIDTH 692 0
DWIDTH 9 0
BBX 9 9 0 0
BITMAP
0800
1400
1400
2200
2200
7F00
4100
4100
8080
ENDCHAR
STARTCHAR U+0042
ENCODING 66
SWIDTH 692 0
DWIDTH 9 0
BBX 9 9 0 0
BITMAP
7E00
4100
4100
4100
7E00
4100
4100
4100
7E00
ENDCHAR
STARTCHAR U+0043
ENCODING 67
SWIDTH 692 0
DWIDTH 9 0
BBX 9 9 0 0
BITMAP
1E00
2100
4000
4000
4000
4000
4000
2100
1E00
ENDCHAR
STARTCHAR U+0044
ENCODING 68
SWIDTH 769 0
DWIDTH 10 0
BBX 10 9 0 0
BITMAP
7E00
4300
4080
4080
4080
4080
4080
4300
7E00
ENDCHAR
STARTCHAR U+0045
ENCODING 69
SWIDTH 615 0
DWIDTH 8 0
BBX 8 9 0 0
BITMAP
7E
40
40
40
7E
40
40
40
7E
ENDCHAR
STARTCHAR U+0046
ENCODING 70
SWIDTH 538 0
DWIDTH 7 0
BBX 7 9 0 0
BITMAP
7C
40
40
40
7C
40
40
40
40
ENDCHAR
STARTCHAR U+0047
ENCODING 71
SWIDTH 769 0
DWIDTH 10 0
BBX 10 9 0 0
BITMAP
1F00
2080
4000
4000
4380
4080
4080
2080
1F00
ENDCHAR
STARTCHAR U+0048
ENCODING 72
SWIDTH 769 0
DWIDTH 10 0
BBX 10 9 0 0
BITMAP
4080
4080
4080
4080
7F80
4080
4080
4080
4080
ENDCHAR
STARTCHAR U+0049
ENCODING 73
SWIDTH 307 0
DWIDTH 4 0
BBX 4 9 0 0
BITMAP
40
40
40
40
40
40
40
40
40
ENDCHAR
STARTCHAR U+004A
ENCODING 74
SWIDTH 307 0
DWIDTH 4 0
BBX 5 12 -1 -3
BITMAP
20
20
20
20
20
20
20
20
20
20
20
C0
ENDCHAR
STARTCHAR U+004B
ENCODING 75
SWIDTH 692 0
DWIDTH 9 0
BBX 9 9 0 0
BITMAP
4200
4400
4800
5000
6000
5000
4800
4400
4200
ENDCHAR
STARTCHAR U+004C
ENCODING 76
SWIDTH 538 0
DWIDTH 7 0
BBX 8 9 0 0
BITMAP
40
40
40
40
40
40
40
40
7E
ENDCHAR
STARTCHAR U+004D
ENCODING 77
SWIDTH 846 0
DWIDTH 11 0
BBX 11 9 0 0
BITMAP
60C0
60C0
5140
5140
4A40
4A40
4440
4040
4040
ENDCHAR
STARTCHAR U+004E
ENCODING 78
SWIDTH 769 0
DWIDTH 10 0
BBX 10 9 0 0
BITMAP
6080
6080
5080
4880
4C80
4480
4280
4180
4180
ENDCHAR
STARTCHAR U+004F
ENCODING 79
SWIDTH 769 0
DWIDTH 10 0
BBX 10 9 0 0
BITMAP
1E00
2100
4080
4080
4080
4080
4080
2100
1E00
ENDCHAR
STARTCHAR U+0050
ENCODING 80
SWIDTH 615 0
DWIDTH 8 0
BBX 8 9 0 0
BITMAP
7C
46
42
42
46
7C
40
40
40
ENDCHAR
STARTCHAR U+0051
ENCODING 81
SWIDTH 769 0
DWIDTH 10 0
BBX 10 11 0 -2
BITMAP
1E00
2100
4080
4080
4080
4080
4080
2100
1E00
0200
0100
ENDCHAR
STARTCHAR U+0052
ENCODING 82
SWIDTH 692 0
DWIDTH 9 0
BBX 9 9 0 0
BITMAP
7C00
4200
4200
4200
7C00
4400
4200
4200
4100
ENDCHAR
STARTCHAR U+0053
ENCODING 83
SWIDTH 615 0
DWIDTH 8 0
BBX 8 9 0 0
BITMAP
3E
61
40
60
3E
03
01
43
3E
ENDCHAR
STARTCHAR U+0054
ENCODING 84
SWIDTH 615 0
DWIDTH 8 0
BBX 9 9 -1 0
BITMAP
7F00
0800
0800
0800
0800
0800
0800
0800
0800
ENDCHAR
STARTCHAR U+0055
ENCODING 85
SWIDTH 769 0
DWIDTH 10 0
BBX 10 9 0 0
BITMAP
4080
4080
4080
4080
4080
4080
4080
6180
1E00
ENDCHAR
STARTCHAR U+0056
ENCODING 86
SWIDTH 692 0
DWIDTH 9 0
BBX 9 9 0 0
BITMAP
0100
0100
8200
8200
4400
4400
2800
2800
1000
ENDCHAR
STARTCHAR U+0057
ENCODING 87
SWIDTH 1000 0
DWIDTH 13 0
BBX 13 9 0 0
BITMAP
0840
0840
8880
9480
9480
5500
5500
2200
2200
ENDCHAR
STARTCHAR U+0058
ENCODING 88
SWIDTH 692 0
DWIDTH 9 0
BBX 9 9 0 0
BITMAP
C300
4200
2400
1800
1800
1800
2400
4200
C300
ENDCHAR
STARTCHAR U+0059
ENCODING 89
SWIDTH 615 0
DWIDTH 8 0
BBX 9 9 -1 0
BITMAP
4100
2200
2200
1400
1400
0800
0800
0800
0800
ENDCHAR
STARTCHAR U+005A
ENCODING 90
SWIDTH 692 0
DWIDTH 9 0
BBX 9 9 0 0
BITMAP
7F80
0100
0200
0400
0400
0800
1000
2000
7F80
ENDCHAR
STARTCHAR U+005B
ENCODING 91
SWIDTH 384 0
DWIDTH 5 0
BBX 5 12 0 -2
BITMAP
70
40
40
40
40
40
40
40
40
40
40
70
ENDCHAR
STARTCHAR U+005C
ENCODING 92
SWIDTH 307 0
DWIDTH 4 0
BBX 5 11 0 -2
BITMAP
80
80
40
40
40
60
20
20
20
10
10
ENDCHAR
STARTCHAR U+005D
ENCODING 93
SWIDTH 384 0
DWIDTH 5 0
BBX 5 12 0 -2
BITMAP
70
10
10
10
10
10
10
10
10
10
10
70
ENDCHAR
STARTCHAR U+005E
ENCODING 94
SWIDTH 846 0
DWIDTH 11 0
BBX 11 9 0 0
BITMAP
0C00
1E00
3300
6180
0000
0000
0000
0000
0000
ENDCHAR
STARTCHAR U+005F
ENCODING 95
SWIDTH 461 0
DWIDTH 6 0
BBX 8 3 -1 -3
BITMAP
00
00
7F
ENDCHAR
STARTCHAR U+0060
ENCODING 96
SWIDTH 461 0
DWIDTH 6 0
BBX 7 10 0 0
BITMAP
20
10
00
00
00
00
00
00
00
00
ENDCHAR
STARTCHAR U+0061
ENCODING 97
SWIDTH 615 0
DWIDTH 8 0
BBX 8 7 0 0
BITMAP
3C
42
02
3E
42
46
3A
ENDCHAR
STARTCHAR U+0062
ENCODING 98
SWIDTH 615 0
DWIDTH 8 0
BBX 8 11 0 0
BITMAP
40
40
40
40
7C
66
42
42
42
66
7C
ENDCHAR
STARTCHAR U+0063
ENCODING 99
SWIDTH 538 0
DWIDTH 7 0
BBX 7 7 0 0
BITMAP
38
64
40
40
40
64
38
ENDCHAR
STARTCHAR U+0064
ENCODING 100
SWIDTH 615 0
DWIDTH 8 0
BBX 8 11 0 0
BITMAP
02
02
02
02
3E
66
42
42
42
66
3E
ENDCHAR
STARTCHAR U+0065
ENCODING 101
SWIDTH 615 0
DWIDTH 8 0
BBX 8 7 0 0
BITMAP
3C
66
42
7E
40
62
3C
ENDCHAR
STARTCHAR U+0066
ENCODING 102
SWIDTH 384 0
DWIDTH 5 0
BBX 5 11 0 0
BITMAP
30
40
40
40
F0
40
40
40
40
40
40
ENDCHAR
STARTCHAR U+0067
ENCODING 103
SWIDTH 615 0
DWIDTH 8 0
BBX 8 10 0 -3
BITMAP
3E
66
42
42
42
66
3E
02
26
1C
ENDCHAR
STARTCHAR U+0068
ENCODING 104
SWIDTH 615 0
DWIDTH 8 0
BBX 8 11 0 0
BITMAP
40
40
40
40
5C
62
42
42
42
42
42
ENDCHAR
STARTCHAR U+0069
ENCODING 105
SWIDTH 307 0
DWIDTH 4 0
BBX 4 10 0 0
BITMAP
40
00
00
40
40
40
40
40
40
40
ENDCHAR
STARTCHAR U+006A
ENCODING 106
SWIDTH 307 0
DWIDTH 4 0
BBX 5 13 -1 -3
BITMAP
20
00
00
20
20
20
20
20
20
20
20
20
60
ENDCHAR
STARTCHAR U+006B
ENCODING 107
SWIDTH 615 0
DWIDTH 8 0
BBX 8 11 0 0
BITMAP
40
40
40
40
44
48
50
60
50
48
44
ENDCHAR
STARTCHAR U+006C
ENCODING 108
SWIDTH 307 0
DWIDTH 4 0
BBX 4 11 0 0
BITMAP
40
40
40
40
40
40
40
40
40
40
40
ENDCHAR
STARTCHAR U+006D
ENCODING 109
SWIDTH 1000 0
DWIDTH 13 0
BBX 13 7 0 0
BITMAP
5CE0
6310
4210
4210
4210
4210
4210
ENDCHAR
STARTCHAR U+006E
ENCODING 110
SWIDTH 615 0
DWIDTH 8 0
BBX 8 7 0 0
BITMAP
5C
62
42
42
42
42
42
ENDCHAR
STARTCHAR U+006F
ENCODING 111
SWIDTH 615 0
DWIDTH 8 0
BBX 8 7 0 0
BITMAP
3C
66
42
42
42
66
3C
ENDCHAR
STARTCHAR U+0070
ENCODING 112
SWIDTH 615 0
DWIDTH 8 0
BBX 8 10 0 -3
BITMAP
7C
66
42
42
42
66
7C
40
40
40
ENDCHAR
STARTCHAR U+0071
ENCODING 113
SWIDTH 615 0
DWIDTH 8 0
BBX 8 10 0 -3
BITMAP
3E
66
42
42
42
66
3E
02
02
02
ENDCHAR
STARTCHAR U+0072
ENCODING 114
SWIDTH 384 0
DWIDTH 5 0
BBX 6 7 0 0
BITMAP
58
60
40
40
40
40
40
ENDCHAR
STARTCHAR U+0073
ENCODING 115
SWIDTH 538 0
DWIDTH 7 0
BBX 7 7 0 0
BITMAP
38
44
40
38
04
44
38
ENDCHAR
STARTCHAR U+0074
ENCODING 116
SWIDTH 384 0
DWIDTH 5 0
BBX 5 9 0 0
BITMAP
40
40
F0
40
40
40
40
40
70
ENDCHAR
STARTCHAR U+0075
ENCODING 117
SWIDTH 615 0
DWIDTH 8 0
BBX 8 7 0 0
BITMAP
42
42
42
42
42
46
3A
ENDCHAR
STARTCHAR U+0076
ENCODING 118
SWIDTH 615 0
DWIDTH 8 0
BBX 8 7 0 0
BITMAP
04
04
88
88
50
50
20
ENDCHAR
STARTCHAR U+0077
ENCODING 119
SWIDTH 846 0
DWIDTH 11 0
BBX 11 7 0 0
BITMAP
8880
8880
4900
5500
5500
2200
2200
ENDCHAR
STARTCHAR U+0078
ENCODING 120
SWIDTH 615 0
DWIDTH 8 0
BBX 8 7 0 0
BITMAP
82
44
28
10
28
44
82
ENDCHAR
STARTCHAR U+0079
ENCODING 121
SWIDTH 615 0
DWIDTH 8 0
BBX 8 10 0 -3
BITMAP
82
44
44
28
28
10
10
20
20
C0
ENDCHAR
STARTCHAR U+007A
ENCODING 122
SWIDTH 538 0
DWIDTH 7 0
BBX 7 7 0 0
BITMAP
7C
04
08
10
20
40
7C
ENDCHAR
STARTCHAR U+007B
ENCODING 123
SWIDTH 615 0
DWIDTH 8 0
BBX 8 12 0 -2
BITMAP
0E
08
08
08
08
30
08
08
08
08
08
06
ENDCHAR
STARTCHAR U+007C
ENCODING 124
SWIDTH 307 0
DWIDTH 4 0
BBX 4 13 0 -3
BITMAP
20
20
20
20
20
20
20
20
20
20
20
20
20
ENDCHAR
STARTCHAR U+007D
ENCODING 125
SWIDTH 615 0
DWIDTH 8 0
BBX 8 12 0 -2
BITMAP
38
08
08
08
08
06
08
08
08
08
08
30
ENDCHAR
STARTCHAR U+007E
ENCODING 126
SWIDTH 846 0
DWIDTH 11 0
BBX 11 6 0 0
BITMAP
3880
4700
0000
0000
0000
0000
ENDCHAR
STARTCHAR U+00E4
ENCODING 228
SWIDTH 615 0
DWIDTH 8 0
BBX 8 10 0 0
BITMAP
00
24
00
3C
42
02
3E
42
46
3A
ENDCHAR
STARTCHAR U+00F6
ENCODING 246
SWIDTH 615 0
DWIDTH 8 0
BBX 8 10 0 0
BITMAP
00
24
00
3C
66
42
42
42
66
3C
ENDCHAR
STARTCHAR U+00FC
ENCODING 252
SWIDTH 615 0
DWIDTH 8 0
BBX 8 10 0 0
BITMAP
00
24
00
42
42
42
42
42
46
3A
ENDCHAR
STARTCHAR U+00C4
ENCODING 196
SWIDTH 692 0
DWIDTH 9 0
BBX 9 11 0 0
BITMAP
1400
0000
0800
1400
1400
2200
2200
7F00
4100
4100
8080
ENDCHAR
STARTCHAR U+00D6
ENCODING 214
SWIDTH 769 0
DWIDTH 10 0
BBX 10 11 0 0
BITMAP
1200
0000
1E00
2100
4080
4080
4080
4080
4080
2100
1E00
ENDCHAR
STARTCHAR U+00DC
ENCODING 220
SWIDTH 769 0
DWIDTH 10 0
BBX 10 11 0 0
BITMAP
1200
0000
4080
4080
4080
4080
4080
4080
4080
6180
1E00
ENDCHAR
STARTCHAR U+00DF
ENCODING 223
SWIDTH 615 0
DWIDTH 8 0
BBX 8 11 0 0
BITMAP
38
44
44
58
50
50
4C
42
42
42
5C
ENDCHAR
STARTCHAR U+00B0
ENCODING 176
SWIDTH 461 0
DWIDTH 6 0
BBX 7 9 0 0
BITMAP
30
48
48
30
00
00
00
00
00
ENDCHAR
ENDFONT
